<?xml version="1.0" standalone="no"?>
<!DOCTYPE svg PUBLIC "-//W3C//DTD SVG 20010904//EN"
 "http://www.w3.org/TR/2001/REC-SVG-20010904/DTD/svg10.dtd">
<svg version="1.0" xmlns="http://www.w3.org/2000/svg"
 width="800.000000pt" height="800.000000pt" viewBox="0 0 800.000000 800.000000"
 preserveAspectRatio="xMidYMid meet">
<metadata>
Created by potrace 1.16, written by Peter Selinger 2001-2019
</metadata>
<g transform="translate(0.000000,800.000000) scale(0.100000,-0.100000)"
fill="#000000" stroke="none">
<path d="M3915 7063 c-16 -3 -37 -11 -46 -19 -9 -8 -19 -11 -24 -7 -4 5 0 -7
9 -24 9 -18 21 -33 27 -33 20 0 56 -35 52 -50 -4 -13 -3 -13 5 -1 9 12 18 11
58 -7 27 -11 50 -24 51 -29 3 -8 -133 -16 -292 -16 -41 0 -59 -3 -45 -7 25 -6
25 -6 -5 -12 -16 -4 -43 -4 -60 -2 -25 4 -27 3 -10 -6 14 -7 0 -8 -50 -4 -38
3 -79 8 -90 11 -11 3 -17 2 -13 -2 4 -5 25 -12 45 -16 35 -8 34 -8 -12 -5 -35
3 -62 -2 -92 -16 -23 -11 -47 -16 -54 -12 -8 4 -9 3 -5 -4 5 -8 0 -12 -13 -12
-11 0 -23 -4 -26 -10 -3 -5 -16 -10 -28 -10 -21 0 -58 -12 -175 -57 -34 -13
-68 -21 -75 -17 -6 4 -9 3 -4 -1 4 -5 -22 -24 -58 -42 -71 -36 -80 -38 -70
-23 3 6 1 10 -5 10 -7 0 -9 -8 -5 -20 5 -14 2 -20 -9 -20 -20 0 -20 10 -2 36
13 17 12 21 -1 37 -15 15 -15 17 0 17 9 0 18 4 21 9 4 5 -3 7 -14 4 -15 -4
-20 0 -20 16 0 12 -9 40 -19 62 -11 22 -17 48 -14 56 4 10 2 14 -5 9 -6 -3
-17 3 -26 15 -21 31 -106 89 -130 90 -21 0 -21 1 -1 9 17 7 16 9 -10 10 -54 3
-110 -1 -118 -10 -5 -4 4 -6 20 -4 l28 4 -27 -9 c-35 -12 -98 -50 -98 -60 0
-4 -18 -14 -39 -21 -31 -10 -39 -17 -35 -33 2 -11 -10 -42 -26 -69 -16 -26
-32 -59 -36 -73 -3 -14 -9 -25 -13 -25 -4 0 -8 -40 -8 -89 1 -55 4 -88 10 -84
6 4 8 -5 5 -20 -3 -15 -1 -24 3 -21 5 3 14 -7 20 -23 5 -15 33 -61 61 -101 45
-67 49 -75 35 -89 -9 -9 -23 -13 -32 -9 -16 6 -16 8 -1 31 10 15 12 26 6 30
-6 3 -10 -2 -11 -12 -1 -13 -3 -11 -9 7 -7 21 -8 18 -7 -15 1 -22 6 -43 11
-46 4 -4 3 -17 -4 -30 -11 -24 -11 -24 9 1 11 14 21 21 21 17 0 -13 -76 -130
-101 -155 -12 -12 -19 -25 -16 -29 4 -3 7 0 7 7 0 7 2 11 5 8 10 -9 -17 -58
-28 -51 -6 3 -7 1 -3 -5 8 -14 -33 -104 -45 -96 -5 3 -6 -2 -3 -10 6 -16 -12
-57 -24 -53 -5 1 -20 -10 -34 -25 -14 -15 -28 -25 -31 -21 -4 3 -7 1 -7 -5 0
-25 27 -10 53 28 9 13 17 19 17 13 0 -19 -22 -63 -32 -63 -4 0 -8 -10 -8 -23
0 -13 -9 -33 -19 -44 -11 -12 -18 -23 -15 -26 6 -5 -56 -100 -68 -105 -4 -2
-8 -9 -8 -16 0 -13 -84 -95 -136 -132 -27 -20 -92 -52 -136 -67 -12 -4 -18 -1
-18 8 0 8 -7 15 -15 15 -8 0 -15 -4 -15 -9 0 -5 -9 -13 -21 -16 -11 -4 -18 -9
-15 -12 3 -3 17 2 31 11 20 13 25 14 25 3 0 -21 -47 -39 -70 -27 -10 5 -25 10
-32 9 -7 0 -2 -5 12 -11 l25 -10 -25 -10 c-14 -5 -33 -11 -44 -14 -10 -2 -21
-6 -25 -10 -3 -4 2 -4 12 -1 11 4 17 2 16 -6 -3 -27 2 -37 21 -37 11 0 20 -4
20 -8 0 -9 -76 -52 -91 -52 -5 0 -46 -18 -91 -39 -46 -21 -103 -48 -128 -60
-56 -26 -96 -49 -136 -78 -17 -12 -35 -19 -39 -15 -5 4 -5 2 -2 -4 4 -7 -3
-19 -16 -27 -37 -26 -93 -80 -112 -110 -19 -30 -33 -30 -16 0 8 15 7 20 -4 20
-8 0 -12 -4 -10 -8 3 -4 1 -17 -3 -30 -8 -20 -4 -26 22 -40 30 -16 33 -16 64
3 17 11 32 15 32 10 0 -6 -16 -20 -35 -32 -32 -20 -40 -21 -85 -10 -28 7 -53
16 -56 21 -3 6 -14 7 -25 4 -11 -4 -26 0 -35 9 -18 18 -34 21 -34 6 0 -5 -8
-10 -17 -10 -13 0 -14 3 -6 8 7 5 -38 9 -100 10 -72 1 -105 -2 -92 -8 16 -7
13 -9 -17 -9 -42 -1 -55 -13 -32 -32 12 -10 17 -10 23 0 5 8 21 10 50 5 29 -5
38 -10 29 -15 -9 -6 -9 -9 -1 -9 6 0 15 5 18 10 3 6 25 10 48 10 33 0 39 -3
27 -11 -11 -8 -5 -9 25 -5 29 4 36 3 25 -5 -11 -7 -6 -8 18 -4 20 4 58 0 98
-11 61 -16 63 -18 48 -35 -9 -10 -21 -16 -27 -15 -7 2 -9 1 -4 -1 11 -7 9 -33
-3 -33 -6 0 -15 -11 -20 -25 -9 -22 -40 -36 -40 -17 0 11 -201 3 -210 -9 -8
-11 -43 -13 -64 -4 -10 4 -21 4 -25 -1 -9 -13 -72 -34 -82 -28 -12 7 -51 -15
-44 -25 6 -10 -19 -33 -28 -25 -3 3 -4 -2 -2 -13 2 -10 4 -20 4 -23 1 -3 5 0
9 5 13 19 56 38 60 27 1 -5 13 -7 24 -4 21 5 21 6 2 14 -12 5 -6 6 19 2 22 -3
37 -1 34 3 -6 9 61 15 181 17 39 1 72 4 72 8 0 4 9 6 20 5 11 -1 20 -2 20 -4
0 -3 -19 -50 -41 -100 -11 -24 -19 -45 -19 -49 0 -10 -44 -43 -57 -44 -7 0
-13 -9 -13 -20 0 -20 1 -20 25 -4 34 22 39 15 25 -37 -9 -32 -14 -39 -22 -28
-6 10 -7 7 -2 -11 5 -14 7 -37 6 -52 0 -16 3 -28 8 -28 6 0 10 -14 10 -31 0
-57 21 -107 47 -114 22 -5 63 19 51 31 -3 2 -11 -2 -18 -11 -7 -8 -17 -15 -23
-15 -6 0 -1 10 10 23 11 12 24 33 28 46 12 41 27 7 29 -67 0 -38 3 -66 7 -61
3 5 11 -6 17 -25 13 -35 5 -77 -17 -91 -6 -3 -11 -11 -11 -17 0 -6 10 2 21 17
l22 27 19 -49 c11 -26 27 -63 35 -80 14 -28 14 -35 2 -50 -12 -15 -12 -16 1
-8 8 5 21 10 29 12 8 1 18 9 23 17 14 25 24 19 38 -24 7 -22 17 -40 22 -40 4
0 8 -5 8 -11 0 -26 151 -248 184 -271 6 -5 24 -6 39 -4 23 4 30 -1 42 -27 13
-30 14 -30 9 -4 -4 16 -2 27 5 27 6 0 11 5 11 11 0 8 -4 8 -14 0 -10 -8 -16
-9 -21 -1 -3 6 -11 8 -16 4 -8 -4 -3 42 5 53 3 3 41 -37 74 -77 48 -59 138
-194 171 -256 27 -51 31 -55 31 -31 0 28 28 87 41 87 6 0 75 -58 139 -117 19
-18 39 -33 43 -33 5 0 5 -4 2 -10 -3 -5 0 -10 7 -10 20 0 139 -128 125 -134
-7 -2 3 -5 21 -5 18 -1 31 3 27 8 -3 5 -1 12 5 16 5 3 10 17 10 31 0 26 17 33
26 11 3 -8 36 -38 74 -68 41 -31 68 -59 65 -67 -3 -7 0 -10 5 -7 17 10 34 -6
19 -17 -11 -7 -10 -8 4 -4 26 8 93 -36 81 -55 -2 -4 5 -5 16 -2 11 3 20 1 20
-5 0 -5 13 -15 30 -22 20 -8 30 -20 30 -34 0 -17 2 -18 10 -6 8 12 10 12 10
-5 0 -16 2 -17 9 -6 8 12 12 12 25 2 9 -7 13 -18 10 -23 -4 -6 -10 -5 -16 3
-8 11 -9 10 -4 -3 3 -12 -12 -43 -42 -85 -58 -83 -106 -158 -129 -200 -21 -41
-30 -42 -30 -3 0 17 -4 35 -9 40 -6 6 -9 -13 -8 -48 1 -54 -2 -61 -58 -141
-33 -45 -64 -90 -71 -98 -25 -31 -165 -173 -171 -173 -4 0 -16 -8 -27 -19 -13
-11 -29 -17 -47 -14 -20 3 -23 2 -13 -6 12 -8 10 -11 -11 -16 -15 -4 -32 -4
-39 1 -8 5 -9 3 -4 -6 6 -10 3 -12 -13 -7 -12 4 -32 9 -44 12 -21 5 -21 5 -3
-4 19 -8 19 -9 1 -16 -11 -5 -21 -3 -27 6 -7 11 -9 11 -9 1 0 -8 -6 -12 -12
-9 -7 2 -12 10 -10 16 2 9 -3 9 -19 1 -24 -14 -83 5 -72 23 4 7 0 8 -12 4 -12
-5 -31 4 -62 29 -38 31 -44 41 -38 63 31 126 13 433 -31 526 -9 20 -26 43 -38
51 l-21 16 21 -5 c16 -3 21 0 20 11 -2 9 -9 18 -17 20 -11 3 -11 1 1 -7 12 -8
8 -11 -17 -11 -17 0 -34 4 -38 10 -9 14 -37 0 -31 -16 5 -13 -7 -18 -41 -17
-7 1 -11 -3 -8 -7 3 -4 -9 -23 -26 -41 -33 -36 -79 -119 -79 -144 0 -8 -4 -15
-8 -15 -4 0 -22 57 -40 128 -17 70 -34 136 -38 148 -3 13 1 27 11 38 9 9 11
16 5 16 -7 0 -9 9 -5 23 5 19 4 20 -5 4 -6 -9 -8 -22 -4 -28 4 -7 1 -10 -6 -7
-8 2 -21 25 -29 49 -9 25 -26 58 -39 74 -17 22 -20 30 -10 37 10 6 10 8 -2 8
-8 0 -30 14 -48 31 -17 16 -48 37 -67 45 -20 8 -33 19 -30 24 3 6 -3 10 -14
10 -10 0 -21 -5 -23 -11 -2 -5 -10 -11 -18 -12 -8 -2 -20 -6 -27 -10 -6 -4
-18 -5 -25 -2 -8 3 -21 -2 -29 -12 -13 -16 -12 -17 4 -4 24 19 32 8 11 -14
-25 -25 -64 -100 -64 -124 0 -11 -5 -21 -10 -23 -6 -2 -11 -17 -13 -35 -1 -17
-5 -29 -9 -26 -5 2 -8 0 -8 -6 0 -5 4 -13 10 -16 5 -3 10 -16 9 -28 0 -21 -1
-21 -9 -2 -7 16 -9 11 -9 -20 0 -31 2 -36 9 -20 6 14 7 3 5 -33 -1 -29 1 -55
6 -58 5 -3 6 2 3 10 -3 9 -1 16 5 16 6 0 11 -13 11 -30 l0 -30 -45 32 c-25 18
-45 35 -45 38 0 4 10 12 23 18 20 9 18 10 -15 9 -29 -2 -34 -5 -25 -16 9 -11
7 -12 -8 -9 -11 2 -19 10 -17 17 1 8 -4 11 -15 8 -10 -3 -38 -1 -63 3 l-45 9
48 -3 c33 -3 45 0 39 6 -10 10 -35 12 -122 8 -42 -2 -43 -3 -15 -10 38 -10 9
-12 -36 -3 -28 5 -30 7 -14 15 13 5 8 6 -15 2 -26 -4 -31 -3 -20 5 18 13 3 13
-25 1 -14 -6 -15 -9 -5 -10 8 0 29 -7 45 -16 l30 -14 -35 4 c-19 3 -29 2 -22
-1 18 -7 15 -26 -4 -19 -18 7 -54 -19 -54 -38 1 -6 9 -1 19 12 29 34 32 26 7
-20 -25 -48 -28 -147 -6 -187 6 -13 9 -34 6 -47 -4 -16 -2 -23 5 -22 6 2 22
-18 35 -43 13 -26 46 -70 73 -99 47 -50 52 -63 35 -104 -6 -15 -4 -17 14 -11
14 4 22 2 22 -6 0 -8 6 -7 22 3 20 13 27 12 82 -16 51 -26 57 -31 37 -34 -36
-6 -97 8 -82 18 17 10 5 30 -17 29 -14 0 -14 -2 3 -10 17 -8 16 -8 -7 -4 -15
3 -29 1 -33 -5 -3 -5 -44 -8 -91 -6 -46 1 -79 -1 -73 -5 7 -4 -1 -10 -20 -14
-18 -4 -40 -19 -53 -38 -12 -18 -26 -35 -31 -38 -5 -4 -4 -9 2 -13 6 -4 11
-12 11 -17 0 -6 -4 -8 -8 -5 -5 3 -9 -1 -9 -9 0 -8 5 -12 10 -8 5 3 6 -4 2
-18 -16 -50 -16 -53 -1 -29 11 18 15 20 16 9 0 -9 13 -31 29 -48 16 -17 28
-38 27 -47 0 -9 6 -19 14 -22 13 -5 13 -3 1 12 -12 15 -12 16 5 9 34 -12 64
-35 58 -44 -3 -5 3 -8 13 -7 29 4 104 -13 98 -22 -3 -5 -1 -11 5 -15 5 -3 10
-1 10 4 0 17 57 13 74 -5 18 -18 71 -30 61 -14 -11 17 31 11 56 -9 39 -30 106
-61 134 -61 14 0 25 -4 25 -10 0 -5 5 -10 11 -10 5 0 7 5 3 11 -4 7 -1 10 7 7
9 -3 13 -18 12 -39 0 -19 1 -26 4 -16 5 20 23 23 23 5 0 -7 16 -44 35 -82 27
-53 32 -72 23 -83 -8 -10 -8 -12 4 -8 11 4 27 -16 57 -76 23 -45 47 -90 54
-99 8 -14 8 -22 -2 -34 -8 -9 -9 -16 -3 -16 6 0 12 6 15 13 2 7 13 -3 25 -23
11 -19 26 -40 31 -47 6 -7 11 -15 11 -19 0 -3 16 -28 35 -54 36 -49 44 -66 23
-54 -7 4 -8 3 -4 -5 4 -6 11 -9 16 -6 12 8 71 -57 65 -73 -2 -7 -1 -11 4 -7
15 9 44 -26 32 -38 -6 -6 -11 -15 -11 -21 0 -5 6 -1 14 10 24 31 40 5 23 -36
-10 -21 -16 -28 -20 -19 -3 8 -3 -1 0 -19 3 -18 2 -32 -3 -31 -20 3 -28 -2
-16 -9 10 -7 9 -18 -6 -53 -10 -24 -16 -52 -14 -63 3 -13 0 -16 -9 -11 -9 6
-11 3 -6 -9 4 -9 2 -36 -3 -59 -5 -23 -14 -69 -20 -102 -7 -33 -16 -68 -21
-78 -5 -10 -7 -23 -4 -30 4 -7 0 -5 -7 4 -12 15 -15 15 -28 1 -13 -14 -12 -15
3 -9 12 5 17 1 17 -13 0 -10 -5 -22 -10 -25 -6 -3 -10 -14 -9 -23 0 -14 2 -13
9 3 8 16 9 12 9 -20 -2 -77 -3 -75 46 -75 43 0 44 1 50 38 3 20 9 62 15 92 5
30 12 80 16 110 4 30 10 60 14 65 4 6 13 42 20 80 7 39 16 75 20 80 4 6 12 30
18 55 15 62 54 174 86 242 14 31 26 59 26 62 0 14 136 271 204 387 43 74 116
186 138 214 4 6 27 39 50 75 23 36 64 99 92 140 111 166 125 187 158 240 78
124 242 407 333 573 33 59 64 107 69 107 4 0 4 -6 -1 -12 -6 -7 -15 -26 -21
-43 -5 -16 -13 -38 -17 -48 -5 -13 -3 -16 8 -11 8 3 27 -6 43 -20 49 -43 53
-46 67 -46 8 0 24 14 37 30 14 19 32 30 47 30 23 0 82 -25 93 -40 3 -3 46 -34
97 -69 50 -34 97 -69 103 -77 16 -18 30 -18 30 0 0 32 50 56 115 56 115 0 192
-39 153 -78 -20 -20 -3 -23 47 -6 42 15 60 15 143 5 52 -6 98 -14 103 -17 5
-3 -7 -19 -26 -36 -19 -16 -35 -36 -35 -44 0 -17 20 -17 178 -5 64 6 185 15
267 21 83 6 159 14 170 17 11 3 -10 -23 -47 -57 -78 -71 -88 -100 -33 -100 20
0 64 9 98 19 34 11 105 31 157 46 156 45 214 62 232 69 19 9 20 13 -19 -129
-43 -157 -65 -222 -147 -439 -126 -330 -396 -860 -566 -1111 -8 -12 -28 -42
-44 -66 -58 -90 -81 -124 -93 -136 -6 -7 -21 -29 -34 -50 -13 -20 -31 -45 -41
-55 -9 -9 -28 -35 -42 -57 -21 -33 -36 -43 -108 -69 l-83 -31 1089 2 1090 2
37 72 c20 40 39 70 43 66 3 -3 6 -37 6 -75 l0 -68 1150 0 1150 0 0 1005 0
1005 -21 0 c-13 0 -18 4 -13 12 7 11 -4 10 -51 -7 -16 -6 -17 -5 -5 4 11 8 -5
9 -62 5 -66 -5 -79 -3 -84 10 -3 9 -15 16 -26 16 -10 0 -17 -4 -14 -8 3 -5 -8
-6 -25 -4 -16 2 -32 8 -35 13 -2 5 -19 6 -37 3 -22 -4 -28 -3 -19 4 9 6 -4 8
-37 4 -34 -3 -51 -1 -51 7 0 6 -12 11 -26 11 -14 0 -32 7 -40 15 -9 8 -21 15
-27 15 -7 0 -6 -5 3 -11 11 -8 6 -9 -20 -5 -19 3 -39 8 -45 10 -5 2 -25 7 -42
11 -18 4 -33 14 -33 21 0 8 -8 14 -17 14 -15 0 -16 -2 -3 -10 28 -18 -15 -12
-65 10 -31 13 -44 24 -39 32 6 10 4 11 -7 0 -19 -17 -32 -15 -58 9 -15 14 -21
28 -17 42 3 12 1 26 -4 32 -5 6 -14 43 -20 81 -5 38 -17 96 -25 128 -13 48
-13 61 -3 68 9 5 9 8 1 8 -6 0 -9 8 -6 18 2 11 -5 34 -16 53 -21 34 -27 70
-14 82 4 4 8 26 9 50 3 44 0 42 -11 -8 -7 -29 -8 -27 -26 30 -11 33 -21 81
-22 107 -1 25 -5 42 -8 36 -9 -15 -21 41 -13 64 3 12 2 18 -3 15 -6 -4 -18 22
-28 56 -9 34 -21 72 -26 85 -5 13 -6 28 -3 34 5 7 2 8 -6 3 -10 -6 -12 -3 -8
13 4 14 2 20 -4 16 -7 -4 -8 5 -3 26 5 21 4 30 -3 26 -6 -3 -15 10 -22 31 -14
44 -47 134 -66 180 -8 17 -14 36 -14 43 0 7 -7 24 -15 38 -16 30 -84 196 -92
227 -3 15 -2 16 5 6 7 -9 12 -10 16 -2 4 6 2 11 -5 11 -7 0 -9 9 -6 23 6 22 6
22 -9 2 -15 -19 -15 -17 -9 25 9 62 15 80 26 80 12 0 12 27 -1 32 -7 2 -7 28
-1 78 5 41 7 78 4 83 -9 15 -20 127 -12 127 4 0 14 -11 23 -25 14 -22 15 -25
1 -25 -8 0 -15 -8 -15 -17 0 -14 2 -15 9 -4 7 11 9 11 14 0 3 -9 7 -3 12 13 4
16 11 26 15 23 5 -3 11 -1 15 5 3 5 1 10 -4 10 -6 0 -11 8 -11 18 0 14 2 15
10 2 7 -11 8 -6 4 16 -3 18 -1 42 6 54 18 34 16 196 -3 253 -10 26 -17 56 -17
66 0 22 -34 132 -56 181 -40 88 -70 145 -76 148 -5 2 -8 8 -8 13 0 5 -16 32
-35 59 -19 27 -35 54 -35 59 0 5 11 18 25 29 14 11 24 26 23 34 -2 7 4 12 12
10 12 -3 13 -1 3 9 -16 16 -17 33 -1 23 7 -4 8 -3 4 5 -4 6 -12 9 -17 5 -6 -3
-13 3 -16 15 -3 12 -9 21 -14 21 -14 0 -11 -16 6 -30 8 -7 15 -20 14 -29 0
-13 -2 -14 -6 -1 -6 16 -38 46 -63 60 -12 7 -13 11 -2 21 6 7 12 20 11 29 0 8
-5 4 -10 -9 l-10 -25 -29 33 c-62 68 -84 102 -71 111 9 5 10 10 2 14 -6 4 -11
1 -11 -6 0 -7 -22 10 -48 37 -27 28 -59 60 -73 72 -40 36 -51 53 -45 69 3 8 2
12 -3 9 -13 -7 -23 28 -15 51 5 16 4 16 -5 4 -6 -8 -11 -12 -12 -7 -4 18 -6
25 -27 65 -13 23 -20 47 -17 52 3 6 3 10 -2 10 -13 0 -35 58 -27 71 4 7 3 9
-2 6 -10 -6 -70 91 -61 99 6 7 60 -15 68 -28 4 -5 6 3 6 18 0 16 -2 23 -4 17
-3 -7 -9 -13 -14 -13 -6 0 -8 4 -5 9 4 5 -4 7 -16 4 -23 -4 -23 -4 -3 11 11 9
25 14 33 11 7 -2 10 -1 7 5 -3 5 7 16 23 24 16 8 34 22 41 30 8 9 18 16 24 16
6 0 1 -10 -11 -23 -23 -25 -28 -37 -13 -37 5 0 11 9 14 20 6 23 39 39 45 22 2
-7 8 -12 14 -12 6 0 6 6 -2 15 -7 8 -19 15 -26 15 -21 0 -17 8 17 45 17 18 39
32 48 30 9 -1 10 0 4 2 -17 6 -16 28 1 42 8 7 18 26 21 42 4 17 13 33 21 36 9
3 11 14 7 34 -3 18 -1 29 6 29 6 0 11 8 11 18 0 12 -3 13 -8 4 -5 -7 -8 16 -7
52 0 36 -2 63 -6 61 -11 -7 -30 46 -24 66 4 11 2 19 -3 19 -5 0 -21 24 -35 53
-14 28 -37 67 -51 86 -14 19 -23 38 -20 43 3 5 0 7 -8 6 -8 -2 -12 6 -11 22 1
14 -1 19 -3 13 -8 -18 -27 -16 -21 1 3 8 -2 20 -11 28 -15 12 -16 11 -3 -4 22
-29 3 -21 -47 20 -26 21 -59 44 -74 52 -16 7 -26 15 -24 18 3 2 26 -7 52 -22
25 -14 50 -24 54 -21 15 9 7 43 -8 38 -11 -5 -11 -7 -1 -14 8 -4 10 -11 7 -15
-4 -3 -21 4 -39 17 -20 14 -46 22 -66 22 -18 -1 -33 2 -33 5 0 9 -148 6 -197
-3 -21 -4 -50 -14 -65 -23 -22 -13 -30 -14 -40 -4 -7 7 -16 12 -22 12 -5 0 -1
-7 10 -15 10 -8 14 -15 7 -15 -34 -1 -183 -163 -183 -200 0 -16 -25 -12 -51 8
-47 37 -200 117 -242 127 -15 4 -30 11 -33 16 -8 13 9 11 44 -7 36 -17 60 -11
41 12 -6 8 -16 14 -22 14 -6 0 -2 -7 9 -15 26 -20 4 -19 -25 1 -14 10 -33 14
-51 10 -19 -3 -34 0 -43 9 -8 8 -25 12 -38 9 -19 -5 -21 -4 -9 5 12 8 8 11
-20 12 l-35 1 32 9 c45 13 47 24 4 26 -27 1 -31 -1 -16 -7 19 -8 19 -9 -2 -9
-12 -1 -24 5 -26 12 -3 7 -6 5 -6 -5 -1 -22 -4 -22 -69 2 -29 11 -65 20 -82
20 -16 0 -31 4 -34 8 -7 11 -115 36 -143 33 -11 -1 -24 3 -28 8 -3 6 -21 11
-38 11 -24 0 -28 3 -17 10 10 7 0 8 -35 5 -27 -3 -44 -3 -37 1 6 3 9 10 6 15
-4 6 -11 6 -19 -1 -15 -13 -55 -5 -55 11 0 5 10 10 23 10 17 1 18 2 4 6 -10 3
-24 0 -31 -6 -9 -8 -34 -9 -72 -5 -44 6 -54 9 -39 16 13 5 6 6 -20 3 -31 -4
-37 -3 -25 5 12 9 10 10 -11 6 -19 -4 -29 -1 -33 9 -3 8 -13 15 -23 15 -16 0
-16 -2 -3 -11 11 -8 5 -9 -25 -5 -22 3 -50 6 -63 6 -13 0 -21 4 -18 9 3 5 -1
11 -9 15 -24 9 -107 14 -140 9z m175 -254 c-30 -5 -75 -14 -100 -19 -25 -6
-87 -19 -138 -30 -156 -34 -402 -119 -509 -175 l-45 -25 -41 32 c-49 39 -103
44 -137 13 -12 -11 -43 -55 -67 -98 -25 -43 -53 -81 -62 -83 -41 -12 -195 -96
-300 -165 -122 -80 -210 -164 -257 -247 -15 -26 -33 -54 -39 -62 -6 -8 -28
-53 -49 -100 -21 -47 -51 -112 -66 -145 -59 -128 -89 -202 -105 -255 -9 -30
-21 -63 -26 -72 -5 -10 -9 -24 -9 -32 0 -18 -58 -36 -114 -36 -21 0 -77 -9
-123 -21 -88 -21 -118 -21 -61 1 120 45 191 91 276 180 53 56 93 122 161 270
160 345 227 457 342 570 47 47 122 109 165 139 81 56 253 150 321 175 21 8 63
24 93 36 30 12 78 28 105 36 28 7 86 22 130 34 162 42 491 87 645 87 l65 1
-55 -9z m-1021 -677 c47 -34 63 -79 56 -157 -3 -38 -11 -91 -17 -116 l-11 -46
-29 15 c-113 56 -247 -102 -210 -246 7 -26 21 -54 32 -64 31 -26 24 -34 -42
-51 -57 -14 -342 -75 -378 -80 -12 -2 -16 13 -18 68 -5 119 46 287 124 408 93
143 198 231 329 274 77 25 125 24 164 -5z m1326 -26 c72 -43 116 -130 136
-275 10 -71 6 -251 -6 -271 -3 -5 -25 -2 -49 7 -42 16 -47 16 -85 -1 -79 -36
-123 -111 -125 -213 0 -66 2 -74 32 -112 18 -23 31 -45 27 -50 -7 -12 -94 -61
-109 -61 -6 0 -24 -8 -41 -17 -20 -10 -63 -18 -126 -21 -119 -5 -181 17 -225
80 -25 36 -29 51 -32 137 -4 114 25 314 57 386 55 123 75 163 105 208 119 179
322 272 441 203z m1458 -751 c91 -179 136 -305 161 -445 8 -47 20 -109 26
-139 5 -29 10 -120 10 -202 0 -214 -28 -346 -126 -599 -10 -25 -22 -52 -28
-60 -11 -14 -27 -43 -51 -85 -10 -18 -37 -60 -82 -125 -91 -131 -295 -339
-453 -460 -58 -45 -112 -86 -120 -93 -47 -38 -282 -185 -362 -227 -55 -29 -81
-21 -86 24 -4 32 -25 43 -55 28 -121 -59 -403 -173 -637 -257 -65 -24 -105
-39 -132 -53 -18 -8 -3 10 65 79 74 75 114 126 105 135 -5 4 -52 -14 -133 -51
-275 -126 -617 -134 -1160 -25 -55 11 -127 24 -160 30 -33 6 -89 19 -125 30
-36 10 -101 28 -145 40 -44 12 -87 24 -95 28 -8 3 -19 7 -25 7 -21 4 -63 24
-70 35 -9 14 -80 50 -100 50 -8 0 -15 -7 -15 -15 0 -22 -14 -18 -42 13 -27 28
-77 72 -83 72 -2 0 -19 14 -37 31 -48 45 -179 129 -201 129 -14 0 -17 -5 -12
-21 11 -32 -7 -16 -30 28 -38 75 -188 237 -239 258 -46 20 -46 20 -46 -12 -1
-27 -1 -27 -16 -8 -8 11 -31 42 -50 69 -20 27 -59 93 -86 145 -58 112 -65 121
-88 121 -10 0 -20 -6 -23 -12 -2 -7 -7 10 -11 37 -4 28 -13 56 -18 63 -6 6 -7
12 -3 12 4 0 3 6 -3 13 -17 20 -23 80 -12 112 9 28 10 27 6 -12 -3 -27 0 -42
7 -40 6 1 14 -16 18 -38 3 -21 12 -41 18 -43 6 -2 11 -11 11 -21 0 -9 7 -26
15 -37 14 -19 14 -19 15 3 0 12 -4 24 -9 27 -5 3 -12 23 -16 43 -3 21 -12 47
-19 58 -7 11 -21 46 -31 77 -10 32 -24 66 -32 75 -14 17 -14 17 -7 -2 4 -11 9
-40 12 -64 3 -32 1 -42 -8 -36 -7 4 -10 22 -8 41 2 19 0 34 -4 34 -12 0 -10
38 2 45 6 4 7 13 1 23 -8 16 -21 83 -24 125 -1 15 -8 17 -41 13 -21 -3 -37 -3
-34 -1 7 8 43 15 103 21 28 3 65 7 82 9 24 3 33 0 33 -11 0 -8 -4 -14 -9 -14
-5 0 -12 -13 -16 -29 -3 -16 -13 -35 -21 -42 -15 -13 -19 -39 -5 -39 5 0 14 7
21 15 21 25 27 18 40 -45 7 -33 17 -63 21 -66 5 -3 9 -13 9 -23 0 -40 118
-246 180 -312 29 -32 47 -60 45 -69 -9 -28 136 -152 233 -200 71 -35 200 -70
259 -70 l42 0 16 -57 c32 -115 59 -194 80 -231 22 -39 51 -58 215 -138 135
-65 147 -70 225 -93 227 -67 338 -79 551 -63 84 7 177 20 206 28 201 60 291
99 396 172 105 73 282 256 282 291 0 6 4 11 9 11 10 0 24 38 22 58 -1 7 2 11
6 10 10 -3 86 72 160 160 31 37 62 72 67 78 6 6 29 36 51 67 22 31 44 57 48
57 5 0 16 -9 25 -19 26 -29 168 -89 198 -83 17 3 23 9 20 19 -3 8 -3 13 1 11
5 -2 26 -12 48 -21 105 -46 174 -86 218 -126 42 -39 47 -41 47 -22 0 26 -89
123 -134 147 -67 36 -177 89 -286 138 -30 14 -86 46 -126 73 -17 12 -47 73
-59 118 -12 49 -40 59 -49 18 -4 -15 -3 -49 2 -74 l9 -46 -81 19 c-383 89
-633 127 -651 99 -6 -11 42 -27 110 -37 28 -4 97 -18 155 -31 58 -14 134 -31
169 -39 95 -21 175 -45 185 -55 11 -10 -13 -32 -59 -55 -16 -8 -43 -23 -60
-34 -120 -76 -338 -148 -530 -175 -295 -42 -667 6 -880 113 -38 19 -80 42 -91
51 -12 9 -32 23 -44 31 -25 17 -127 121 -158 160 -11 14 -23 36 -27 50 -4 14
-12 30 -17 37 -6 8 4 13 34 18 66 10 192 51 274 90 58 26 82 32 110 28 36 -6
37 -6 32 25 -3 23 -1 32 10 32 17 0 141 102 198 162 116 122 176 247 178 368
l2 75 54 18 c84 27 226 55 450 87 149 21 513 32 706 21 227 -13 604 -14 694
-1 116 16 238 38 272 49 162 53 226 81 317 143 69 47 173 158 200 214 25 50
42 77 46 72 1 -2 27 -52 58 -113z m-4289 -303 c-29 -29 -55 -47 -64 -43 -13 4
-13 2 -1 -12 12 -15 12 -21 0 -44 -17 -31 -17 -169 0 -186 6 -6 11 -18 11 -26
0 -9 11 -38 25 -66 13 -27 24 -54 25 -60 0 -5 17 -43 37 -84 26 -50 61 -98
113 -150 138 -140 216 -196 380 -271 8 -4 22 -40 33 -81 10 -41 24 -87 31
-104 33 -73 34 -71 -54 -114 -99 -50 -179 -65 -284 -56 -161 14 -298 75 -401
179 -44 44 -105 121 -105 132 0 5 -8 20 -17 33 -9 14 -29 60 -44 104 -32 92
-49 116 -50 71 l0 -29 -10 25 c-12 29 3 70 25 70 16 0 31 34 22 49 -3 4 -69 6
-146 3 -77 -3 -140 -2 -140 2 0 12 34 42 63 54 19 8 29 22 34 43 l6 31 56 -7
c31 -4 70 -14 88 -22 41 -19 67 -14 71 16 3 19 0 22 -17 16 -11 -3 -33 0 -48
8 -15 8 -58 20 -96 28 l-68 13 48 49 c46 47 50 48 91 43 24 -3 56 -15 72 -26
15 -11 34 -20 42 -20 7 0 24 -9 38 -20 30 -24 36 -24 44 -5 5 15 -59 66 -99
78 -51 15 -100 36 -102 43 -1 5 10 18 26 29 61 43 130 101 136 114 3 8 1 19
-4 24 -12 12 -71 17 -71 7 0 -4 -6 -7 -12 -8 -7 0 -24 -4 -38 -7 -20 -6 -17
-2 13 20 21 15 45 24 52 21 9 -3 12 0 8 10 -3 9 2 14 15 14 11 0 22 4 24 10 2
6 8 6 18 0 13 -8 12 -10 -3 -10 -10 0 -16 -4 -12 -9 6 -11 45 -11 45 0 0 4 -7
12 -15 19 -8 7 -15 17 -15 22 0 6 7 7 15 4 8 -3 23 -9 33 -12 14 -4 13 -3 -2
7 -18 11 -17 13 15 30 19 10 42 18 52 19 9 0 26 9 37 20 11 11 27 20 35 20 8
0 29 9 47 20 48 29 47 25 -8 -28z m741 -1377 c22 -27 49 -57 60 -66 11 -9 36
-30 55 -47 46 -41 180 -105 265 -127 39 -10 73 -20 77 -24 6 -6 -6 -197 -18
-268 -5 -32 -7 -33 -53 -33 -69 0 -153 17 -214 45 -47 20 -56 30 -75 74 -12
27 -22 55 -22 61 0 6 -9 39 -20 73 -11 34 -30 91 -41 127 -22 66 -39 97 -39
69 0 -8 11 -82 25 -165 14 -82 25 -163 25 -180 0 -39 -14 -44 -121 -44 -101 0
-96 -8 -179 285 -13 44 -25 85 -27 92 -3 6 31 28 79 51 83 41 136 81 158 122
7 12 15 18 19 14 4 -5 25 -31 46 -59z m2755 -1682 c-92 -85 -269 -283 -341
-383 -18 -24 -36 -49 -41 -55 -48 -58 -157 -218 -293 -430 -21 -33 -56 -87
-77 -119 -39 -58 -60 -94 -113 -191 -36 -65 -95 -155 -101 -155 -2 0 8 21 22
48 40 69 184 355 221 437 17 39 40 91 52 117 12 26 21 51 21 55 1 4 9 26 20
48 11 22 19 44 20 50 0 9 26 80 55 150 7 17 16 45 20 63 15 73 31 21 26 -88
-1 -31 0 -33 11 -16 7 10 34 51 60 90 93 141 184 230 383 370 50 36 96 65 104
65 7 1 -14 -25 -49 -56z"/>
<path d="M4540 4826 c-3 -2 -66 -9 -140 -15 -74 -6 -157 -16 -185 -21 -27 -6
-97 -17 -155 -25 -166 -23 -291 -44 -324 -55 -17 -5 -67 -17 -111 -26 -162
-33 -385 -107 -392 -130 -5 -14 35 -7 187 31 146 37 269 61 455 89 88 14 189
29 225 35 128 21 428 50 580 56 142 6 218 1 303 -20 15 -4 27 -3 27 1 0 19
-70 52 -140 67 -69 13 -320 24 -330 13z"/>
<path d="M3955 4475 c-5 -2 -95 -11 -200 -20 -237 -19 -405 -51 -405 -77 0
-12 142 -3 220 13 68 15 685 22 835 10 178 -14 398 -41 410 -51 6 -4 26 -11
45 -15 42 -8 120 -45 120 -57 0 -4 7 -8 16 -8 13 0 13 3 -1 28 -46 77 -203
132 -450 158 -133 15 -569 28 -590 19z"/>
<path d="M3500 4214 c-8 -3 -21 -8 -29 -10 -28 -9 0 -17 81 -21 395 -22 560
-40 833 -92 233 -44 265 -51 312 -65 26 -8 75 -22 108 -31 83 -24 203 -82 215
-106 12 -21 40 -26 40 -7 0 22 -105 113 -162 140 -117 56 -413 130 -628 157
-199 26 -318 34 -530 37 -124 2 -232 1 -240 -2z"/>
</g>
</svg>
